<?xml version="1.0" standalone="no"?><!DOCTYPE svg PUBLIC "-//W3C//DTD SVG 1.1//EN" "http://www.w3.org/Graphics/SVG/1.1/DTD/svg11.dtd"><svg t="1535534303745" class="icon" style="" viewBox="0 0 1024 1024" version="1.1" xmlns="http://www.w3.org/2000/svg" p-id="7612" xmlns:xlink="http://www.w3.org/1999/xlink" width="200" height="200"><defs><style type="text/css"></style></defs><path d="M512 67C266.265 67 67 266.262 67 512.008S266.236 956.985 512 957c245.735-0.015 445-199.262 445-445.008C957 266.248 757.765 67 512 67zM512 927.32c-229.019 0-415.333-186.298-415.333-415.313 0-229.03 186.314-415.341 415.333-415.313 229.019-0.014 415.334 186.283 415.334 415.313C927.334 741.022 741.019 927.32 512 927.32z" p-id="7613" fill="#d81e06"></path><path d="M663.477 502.766c-12.588 0-30.246-11.342-20.149-22.669 10.082-11.328 11.343-62.998-31.507-70.544-42.805-7.576-74.312 7.533-84.394 11.328-10.096 3.795-36.532 1.26-25.19-15.123 11.343-16.368 10.067-64.257-39.053-64.257-49.15 0-116.017 37.619-179.377 112.726-40.748 48.323-77.31 112.219-52.901 176.984 17.296 45.86 67.518 81.204 110.815 98.428 35.49 14.124 79.526 16.297 117.682 16.297 151.173 0 260.786-104.571 263.292-163.788C725.229 522.93 676.094 502.766 663.477 502.766zM463.386 702.056c-97.575 9.923-181.665-31.172-187.807-91.808-6.186-60.622 67.924-117.81 165.455-127.733 97.576-9.923 181.665 31.172 187.822 91.809C635.013 634.945 560.933 692.135 463.386 702.056z" p-id="7614" fill="#d81e06"></path><path d="M420.726 533.721c-51.076 10.69-85.943 50.729-77.831 89.463 8.083 38.748 56.03 61.505 107.121 50.844 51.105-10.676 85.929-50.728 77.846-89.463C519.778 545.831 471.802 523.06 420.726 533.721zM408.108 648.895c-21.019 0-38.039-12.762-38.039-28.521 0-15.774 17.021-28.536 38.039-28.536s38.04 12.762 38.04 28.536C446.148 636.133 429.127 648.895 408.108 648.895zM466.964 599.731c-8.865 0-16.021-7.171-16.021-16.007 0-8.821 7.156-15.977 16.021-15.977 8.808 0 15.978 7.155 15.978 15.977C482.941 592.561 475.771 599.731 466.964 599.731z" p-id="7615" fill="#d81e06"></path><path d="M706.268 472.969c4.766-10.299 7.171-21.308 7.171-32.723 0-43.036-35.013-78.077-78.063-78.077-7.722 0-15.384 1.145-22.772 3.375l5.853 19.164c5.476-1.666 11.183-2.506 16.92-2.506 32.013 0 58.044 26.045 58.044 58.043 0 8.488-1.782 16.673-5.331 24.321L706.268 472.969z" p-id="7616" fill="#d81e06"></path><path d="M634.983 278.068c-16.253 0-32.303 2.346-47.716 6.981l7.691 25.582c12.907-3.882 26.379-5.852 40.024-5.852 76.817 0 139.28 62.476 139.28 139.277 0 16.948-2.999 33.49-8.909 49.193l24.974 9.415c7.069-18.715 10.646-38.43 10.646-58.608C800.975 352.537 726.504 278.068 634.983 278.068z" p-id="7617" fill="#d81e06"></path></svg>