<?xml version="1.0" standalone="no"?><!DOCTYPE svg PUBLIC "-//W3C//DTD SVG 1.1//EN" "http://www.w3.org/Graphics/SVG/1.1/DTD/svg11.dtd"><svg t="1535534371381" class="icon" style="" viewBox="0 0 1024 1024" version="1.1" xmlns="http://www.w3.org/2000/svg" p-id="8281" xmlns:xlink="http://www.w3.org/1999/xlink" width="200" height="200"><defs><style type="text/css"></style></defs><path d="M513 114c-219.8 0-398 178.2-398 398s178.2 398 398 398 398-178.2 398-398-178.2-398-398-398z m0 761.9C312 875.9 149.1 713 149.1 512S312 148.1 513 148.1 876.9 311 876.9 512 714 875.9 513 875.9z m227.3-428.2l-129.3-25c-10.8-1-13.2-2.6-16.5-11.1l-71.6-118.8c-5.5-11-14.5-11-20 0l-75.5 118.8c-4.4 7.2-6.4 8.9-17 9.8l-124.9 26.3c-12.5 1.2-15.3 9.1-6.2 17.6l95.6 107.2c5 4.6 5.1 6.6 3.7 12.9l-16.1 129.3c-2.3 12.1 4.7 16.9 15.6 10.8l122.1-57.3c8.6-5.2 16.5-5.4 24.9-0.3l122.7 57.7c10.9 6.1 18 1.3 15.7-10.8l-13.9-88.9c12.6-6.6 29-15.1 36.3-26.9l-3 0.6c-43.4 10.1-114.4 14.9-169.8 14.9-30.9 0-84.9-6.6-107.4-16.9-5.2-2.5 0.5-4.5 0.5-4.5l147.1-101.9s3.9-2.3 0-2.8c-60.5-9.2-127.5-11.5-190.4-11.5h-4.3c42.6-9.5 96.3-21.6 154.6-21.6 60.5 0 139.6 18.4 121.6 15.6 6.2 0.9 0.4 4.4 0.4 4.4l-147.3 99.5s-3.4 2 0.3 2.5c45.3 6.2 112.6 19.8 162.8 20.5l-2.3-12.1c-1.1-7 0-9.4 5.4-14.4l92.5-106c8.9-8.5 6.2-16.4-6.3-17.6z" p-id="8282" fill="#f4ea2a"></path></svg>